<svg width="8" height="12" viewBox="0 0 8 12" fill="none" xmlns="http://www.w3.org/2000/svg">
<path d="M2.75153 5.97482L6.78349 1.94286C6.99562 1.72946 7.11469 1.44078 7.11469 1.13988C7.11469 0.838981 6.99562 0.550307 6.78349 0.336906C6.67761 0.230152 6.55163 0.145419 6.41284 0.0875946C6.27405 0.0297705 6.12518 0 5.97482 0C5.82446 0 5.67559 0.0297705 5.5368 0.0875946C5.398 0.145419 5.27203 0.230152 5.16615 0.336906L0.336906 5.16615C0.230152 5.27203 0.145419 5.398 0.0875951 5.5368C0.029771 5.67559 0 5.82446 0 5.97482C0 6.12518 0.029771 6.27405 0.0875951 6.41284C0.145419 6.55163 0.230152 6.67761 0.336906 6.78349L5.16615 11.6697C5.27257 11.7752 5.39879 11.8588 5.53756 11.9154C5.67633 11.9721 5.82492 12.0008 5.97482 12C6.12471 12.0008 6.27331 11.9721 6.41208 11.9154C6.55085 11.8588 6.67706 11.7752 6.78349 11.6697C6.99562 11.4563 7.11469 11.1676 7.11469 10.8667C7.11469 10.5658 6.99562 10.2771 6.78349 10.0637L2.75153 5.97482Z" fill="#333333"/>
</svg>
