<svg width="29" height="20" viewBox="0 0 29 20" fill="none" xmlns="http://www.w3.org/2000/svg">
<path d="M28.5714 18.5786C28.5714 19.3643 27.9343 20 27.15 20H15.7071C15.3302 20 14.9686 19.8502 14.702 19.5837C14.4355 19.3171 14.2857 18.9556 14.2857 18.5786C14.2857 18.2016 14.4355 17.84 14.702 17.5735C14.9686 17.3069 15.3302 17.1571 15.7071 17.1571H27.15C27.9357 17.1571 28.5714 17.7929 28.5714 18.5786ZM28.5714 10C28.5714 10.7857 27.9343 11.4214 27.15 11.4214H1.42143C1.04444 11.4214 0.682896 11.2717 0.416327 11.0051C0.149757 10.7385 0 10.377 0 10C0 9.62301 0.149757 9.26147 0.416327 8.9949C0.682896 8.72833 1.04444 8.57857 1.42143 8.57857H27.15C27.9357 8.57857 28.5714 9.21571 28.5714 10ZM27.15 2.84286C27.527 2.84286 27.8885 2.6931 28.1551 2.42653C28.4217 2.15996 28.5714 1.79841 28.5714 1.42143C28.5714 1.04444 28.4217 0.682896 28.1551 0.416327C27.8885 0.149757 27.527 1.12351e-08 27.15 0H9.99286C9.80619 -5.56304e-09 9.62136 0.0367663 9.4489 0.1082C9.27644 0.179633 9.11975 0.284335 8.98776 0.416327C8.85576 0.548318 8.75106 0.705016 8.67963 0.877472C8.6082 1.04993 8.57143 1.23476 8.57143 1.42143C8.57143 1.60809 8.6082 1.79293 8.67963 1.96539C8.75106 2.13784 8.85576 2.29454 8.98776 2.42653C9.11975 2.55852 9.27644 2.66322 9.4489 2.73466C9.62136 2.80609 9.80619 2.84286 9.99286 2.84286H27.15Z" fill="#ffffff"/>
</svg>
