<svg width="23" height="20" viewBox="0 0 23 20" fill="none" xmlns="http://www.w3.org/2000/svg">
<path d="M2.71875 2.5C2.36458 2.5 2.0675 2.38 1.8275 2.14C1.5875 1.9 1.46792 1.60334 1.46875 1.25C1.46875 0.895837 1.58875 0.598754 1.82875 0.358754C2.06875 0.118754 2.36542 -0.000829008 2.71875 4.32525e-06H20.2187C20.5729 4.32525e-06 20.87 0.120004 21.11 0.360004C21.35 0.600004 21.4696 0.896671 21.4687 1.25C21.4687 1.60417 21.3487 1.90125 21.1087 2.14125C20.8687 2.38125 20.5721 2.50084 20.2187 2.5H2.71875ZM2.71875 20C2.36458 20 2.0675 19.88 1.8275 19.64C1.5875 19.4 1.46792 19.1033 1.46875 18.75V12.5H1.25C0.854166 12.5 0.53125 12.3487 0.28125 12.0462C0.03125 11.7437 -0.0520833 11.395 0.03125 11L1.28125 4.75C1.34375 4.45834 1.48958 4.21875 1.71875 4.03125C1.94792 3.84375 2.20833 3.75 2.5 3.75H20.4375C20.7292 3.75 20.9896 3.84375 21.2187 4.03125C21.4479 4.21875 21.5937 4.45834 21.6562 4.75L22.9062 11C22.9896 11.3958 22.9062 11.7446 22.6562 12.0462C22.4062 12.3479 22.0833 12.4992 21.6875 12.5H21.4687V18.75C21.4687 19.1042 21.3487 19.4012 21.1087 19.6412C20.8687 19.8812 20.5721 20.0008 20.2187 20C19.8646 20 19.5675 19.88 19.3275 19.64C19.0875 19.4 18.9679 19.1033 18.9687 18.75V12.5H13.9687V18.75C13.9687 19.1042 13.8487 19.4012 13.6087 19.6412C13.3687 19.8812 13.0721 20.0008 12.7187 20H2.71875ZM3.96875 17.5H11.4687V12.5H3.96875V17.5Z" fill="#333333"/>
</svg>
