<svg width="23" height="28" viewBox="0 0 23 28" fill="none" xmlns="http://www.w3.org/2000/svg">
<path d="M11.4545 0L0 5.09091V12.7273C0 19.7909 4.88727 26.3964 11.4545 28C18.0218 26.3964 22.9091 19.7909 22.9091 12.7273V5.09091L11.4545 0ZM11.4545 5.09091C12.4672 5.09091 13.4384 5.49318 14.1544 6.20923C14.8705 6.92528 15.2727 7.89645 15.2727 8.90909C15.2727 9.92174 14.8705 10.8929 14.1544 11.609C13.4384 12.325 12.4672 12.7273 11.4545 12.7273C10.4419 12.7273 9.47073 12.325 8.75468 11.609C8.03864 10.8929 7.63636 9.92174 7.63636 8.90909C7.63636 7.89645 8.03864 6.92528 8.75468 6.20923C9.47073 5.49318 10.4419 5.09091 11.4545 5.09091ZM17.9836 20.3636C16.4416 22.7241 14.1372 24.4849 11.4545 25.3527C8.77186 24.4849 6.46752 22.7241 4.92545 20.3636C4.49273 19.7273 4.12364 19.0909 3.81818 18.4164C3.81818 16.3164 7.26727 14.5982 11.4545 14.5982C15.6418 14.5982 19.0909 16.2782 19.0909 18.4164C18.7855 19.0909 18.4164 19.7273 17.9836 20.3636Z" fill="#333333"/>
</svg>
