<svg width="18" height="18" viewBox="0 0 18 18" fill="none" xmlns="http://www.w3.org/2000/svg">
<path d="M8.99992 12.1994C10.7672 12.1994 12.1999 10.7667 12.1999 8.99944C12.1999 7.23213 10.7672 5.79944 8.99992 5.79944C7.23261 5.79944 5.79993 7.23213 5.79993 8.99944C5.79993 10.7667 7.23261 12.1994 8.99992 12.1994Z" stroke="white" stroke-width="2" stroke-linecap="round" stroke-linejoin="round"/>
<path d="M12.2 5.7995V9.7995C12.2 10.436 12.4529 11.0465 12.9029 11.4966C13.353 11.9466 13.9635 12.1995 14.6 12.1995C15.2365 12.1995 15.847 11.9466 16.2971 11.4966C16.7471 11.0465 17 10.436 17 9.7995V8.9995C16.9999 7.19392 16.389 5.44148 15.2666 4.02713C14.1443 2.61277 12.5764 1.61968 10.8181 1.20934C9.05978 0.798999 7.21435 0.995537 5.58188 1.767C3.94942 2.53846 2.62592 3.83947 1.82661 5.45848C1.0273 7.07749 0.79918 8.91929 1.17934 10.6844C1.5595 12.4495 2.52559 14.0341 3.92051 15.1805C5.31543 16.3269 7.05715 16.9678 8.86246 16.9988C10.6678 17.0299 12.4305 16.4493 13.864 15.3515" stroke="white" stroke-width="2" stroke-linecap="round" stroke-linejoin="round"/>
</svg>
