<svg width="23" height="20" viewBox="0 0 23 20" fill="none" xmlns="http://www.w3.org/2000/svg">
<path d="M21.1111 0C21.4058 0 21.6884 0.117063 21.8968 0.325437C22.1052 0.533811 22.2222 0.816426 22.2222 1.11111V8.88889C22.2222 9.18357 22.1052 9.46619 21.8968 9.67456C21.6884 9.88294 21.4058 10 21.1111 10H18.8878L18.8889 18.8889C18.8889 19.1836 18.7718 19.4662 18.5635 19.6746C18.3551 19.8829 18.0725 20 17.7778 20H4.44444C4.14976 20 3.86714 19.8829 3.65877 19.6746C3.4504 19.4662 3.33333 19.1836 3.33333 18.8889L3.33222 9.99889L1.11111 10C0.816426 10 0.533811 9.88294 0.325437 9.67456C0.117063 9.46619 0 9.18357 0 8.88889V1.11111C0 0.816426 0.117063 0.533811 0.325437 0.325437C0.533811 0.117063 0.816426 0 1.11111 0H7.77778C7.77778 0.884055 8.12897 1.7319 8.75409 2.35702C9.37921 2.98214 10.2271 3.33333 11.1111 3.33333C11.9952 3.33333 12.843 2.98214 13.4681 2.35702C14.0933 1.7319 14.4444 0.884055 14.4444 0H21.1111Z" fill="#fff"/>
</svg>
