<svg width="12" height="12" viewBox="0 0 12 12" fill="none" xmlns="http://www.w3.org/2000/svg">
<path d="M11.5 5C11.5 4.73478 11.3946 4.48043 11.2071 4.29289C11.0196 4.10536 10.7652 4 10.5 4H7.34L7.82 1.715C7.83 1.665 7.835 1.61 7.835 1.555C7.835 1.35 7.75 1.16 7.615 1.025L7.085 0.5L3.795 3.79C3.61 3.975 3.5 4.225 3.5 4.5V9.5C3.5 9.76522 3.60536 10.0196 3.79289 10.2071C3.98043 10.3946 4.23478 10.5 4.5 10.5H9C9.415 10.5 9.77 10.25 9.92 9.89L11.43 6.365C11.475 6.25 11.5 6.13 11.5 6V5ZM0.5 10.5H2.5V4.5H0.5V10.5Z" fill="#333333"/>
</svg>
