<svg width="18" height="18" viewBox="0 0 18 18" fill="none" xmlns="http://www.w3.org/2000/svg">
<path d="M2 2H8C8.55 2 9 1.55 9 1C9 0.45 8.55 0 8 0H2C0.9 0 0 0.9 0 2V16C0 17.1 0.9 18 2 18H8C8.55 18 9 17.55 9 17C9 16.45 8.55 16 8 16H2V2Z" fill="white"/>
<path d="M17.65 8.65004L14.86 5.86004C14.7905 5.78859 14.7012 5.73952 14.6036 5.71911C14.506 5.69869 14.4045 5.70787 14.3121 5.74545C14.2198 5.78304 14.1408 5.84733 14.0851 5.93009C14.0295 6.01286 13.9999 6.11033 14 6.21004V8.00004H7C6.45 8.00004 6 8.45004 6 9.00004C6 9.55004 6.45 10 7 10H14V11.79C14 12.24 14.54 12.46 14.85 12.14L17.64 9.35004C17.84 9.16004 17.84 8.84004 17.65 8.65004Z" fill="white"/>
</svg>
