<svg width="22" height="20" viewBox="0 0 22 20" fill="none" xmlns="http://www.w3.org/2000/svg">
<path d="M1.1 0H20.9C21.1917 0 21.4715 0.115892 21.6778 0.322182C21.8841 0.528473 22 0.808262 22 1.1V18.7C22 18.9917 21.8841 19.2715 21.6778 19.4778C21.4715 19.6841 21.1917 19.8 20.9 19.8H1.1C0.808262 19.8 0.528473 19.6841 0.322182 19.4778C0.115892 19.2715 0 18.9917 0 18.7V1.1C0 0.808262 0.115892 0.528473 0.322182 0.322182C0.528473 0.115892 0.808262 0 1.1 0ZM7.15 12.1V14.3H9.9V16.5H12.1V14.3H13.2C13.9293 14.3 14.6288 14.0103 15.1445 13.4945C15.6603 12.9788 15.95 12.2793 15.95 11.55C15.95 10.8207 15.6603 10.1212 15.1445 9.60546C14.6288 9.08973 13.9293 8.8 13.2 8.8H8.8C8.65413 8.8 8.51424 8.74205 8.41109 8.63891C8.30795 8.53576 8.25 8.39587 8.25 8.25C8.25 8.10413 8.30795 7.96424 8.41109 7.86109C8.51424 7.75795 8.65413 7.7 8.8 7.7H14.85V5.5H12.1V3.3H9.9V5.5H8.8C8.07065 5.5 7.37118 5.78973 6.85546 6.30546C6.33973 6.82118 6.05 7.52065 6.05 8.25C6.05 8.97935 6.33973 9.67882 6.85546 10.1945C7.37118 10.7103 8.07065 11 8.8 11H13.2C13.3459 11 13.4858 11.0579 13.5889 11.1611C13.6921 11.2642 13.75 11.4041 13.75 11.55C13.75 11.6959 13.6921 11.8358 13.5889 11.9389C13.4858 12.0421 13.3459 12.1 13.2 12.1H7.15Z" fill="#777777"/>
</svg>
