<svg width="16" height="16" viewBox="0 0 16 16" fill="none" xmlns="http://www.w3.org/2000/svg">
<path d="M9.80718 9.39255L7.99933 11.2004H6.39947V12.8003H4.7996V14.4001L3.19973 16H0V12.8003L6.60745 6.19282C6.29685 5.16889 6.33732 4.07053 6.72241 3.07223C7.10751 2.07392 7.81515 1.23293 8.73292 0.682842C9.6507 0.132755 10.726 -0.0948784 11.7879 0.0361037C12.8499 0.167086 13.8376 0.649171 14.5942 1.40578C15.3508 2.16238 15.8329 3.15012 15.9639 4.21207C16.0949 5.27403 15.8672 6.3493 15.3172 7.26708C14.7671 8.18485 13.9261 8.89249 12.9278 9.27759C11.9295 9.66268 10.8311 9.70315 9.80718 9.39255V9.39255ZM13.6949 5.69686C14.0301 5.36125 14.2583 4.93383 14.3507 4.4686C14.4431 4.00336 14.3956 3.52117 14.2141 3.08292C14.0327 2.64467 13.7254 2.27003 13.3312 2.00631C12.9369 1.74259 12.4733 1.60162 11.999 1.6012C11.3627 1.60176 10.7528 1.85496 10.3031 2.30514L13.6949 5.69686V5.69686Z" fill="white"/>
</svg>
