<svg width="16" height="18" viewBox="0 0 16 18" fill="none" xmlns="http://www.w3.org/2000/svg">
<path d="M1.68421 8.62526V11.9937C1.68421 12.6926 2.24842 13.2568 2.94737 13.2568C3.64632 13.2568 4.21053 12.6926 4.21053 11.9937V8.62526C4.21053 7.92632 3.64632 7.36211 2.94737 7.36211C2.24842 7.36211 1.68421 7.92632 1.68421 8.62526ZM6.73684 8.62526V11.9937C6.73684 12.6926 7.30105 13.2568 8 13.2568C8.69895 13.2568 9.26316 12.6926 9.26316 11.9937V8.62526C9.26316 7.92632 8.69895 7.36211 8 7.36211C7.30105 7.36211 6.73684 7.92632 6.73684 8.62526ZM1.26316 17.4674H14.7368C15.4358 17.4674 16 16.9032 16 16.2042C16 15.5053 15.4358 14.9411 14.7368 14.9411H1.26316C0.564211 14.9411 0 15.5053 0 16.2042C0 16.9032 0.564211 17.4674 1.26316 17.4674ZM11.7895 8.62526V11.9937C11.7895 12.6926 12.3537 13.2568 13.0526 13.2568C13.7516 13.2568 14.3158 12.6926 14.3158 11.9937V8.62526C14.3158 7.92632 13.7516 7.36211 13.0526 7.36211C12.3537 7.36211 11.7895 7.92632 11.7895 8.62526ZM7.21684 0.195789L0.564211 3.69895C0.218947 3.87579 0 4.23789 0 4.62526C0 5.20632 0.471579 5.67789 1.05263 5.67789H14.9558C15.5284 5.67789 16 5.20632 16 4.62526C16 4.23789 15.7811 3.87579 15.4358 3.69895L8.78316 0.195789C8.29474 -0.0652632 7.70526 -0.0652632 7.21684 0.195789Z" fill="white"/>
</svg>
