<svg width="16" height="16" viewBox="0 0 16 16" fill="none" xmlns="http://www.w3.org/2000/svg">
<path d="M8.56 7.36L7.4 6.22C7.24 6.07333 7.05333 6 6.84 6C6.62667 6 6.44 6.08 6.28 6.24C6.13333 6.38667 6.06 6.57333 6.06 6.8C6.06 7.02667 6.13333 7.21333 6.28 7.36L8 9.08C8.14667 9.22667 8.33333 9.3 8.56 9.3C8.78667 9.3 8.97333 9.22667 9.12 9.08L12.52 5.68C12.68 5.52 12.76 5.32987 12.76 5.1096C12.76 4.88933 12.68 4.69947 12.52 4.54C12.36 4.38 12.1701 4.3 11.9504 4.3C11.7307 4.3 11.5405 4.38 11.38 4.54L8.56 7.36ZM4.8 12.8C4.36 12.8 3.9832 12.6432 3.6696 12.3296C3.356 12.016 3.19947 11.6395 3.2 11.2V1.6C3.2 1.16 3.3568 0.783201 3.6704 0.469601C3.984 0.156001 4.36053 -0.000531975 4.8 1.35823e-06H14.4C14.84 1.35823e-06 15.2168 0.156801 15.5304 0.470401C15.844 0.784001 16.0005 1.16053 16 1.6V11.2C16 11.64 15.8432 12.0168 15.5296 12.3304C15.216 12.644 14.8395 12.8005 14.4 12.8H4.8ZM1.6 16C1.16 16 0.783201 15.8432 0.469601 15.5296C0.156001 15.216 -0.000531975 14.8395 1.35823e-06 14.4V4C1.35823e-06 3.77333 0.0768014 3.5832 0.230401 3.4296C0.384001 3.276 0.573868 3.19947 0.800001 3.2C1.02667 3.2 1.2168 3.2768 1.3704 3.4304C1.524 3.584 1.60053 3.77387 1.6 4V14.4H12C12.2267 14.4 12.4168 14.4768 12.5704 14.6304C12.724 14.784 12.8005 14.9739 12.8 15.2C12.8 15.4267 12.7232 15.6168 12.5696 15.7704C12.416 15.924 12.2261 16.0005 12 16H1.6Z" fill="white"/>
</svg>
