<svg width="23" height="20" viewBox="0 0 23 20" fill="none" xmlns="http://www.w3.org/2000/svg">
<path d="M20.9091 3.63636H2.72727C2.48617 3.63636 2.25494 3.54058 2.08445 3.3701C1.91396 3.19961 1.81818 2.96838 1.81818 2.72727C1.81818 2.48617 1.91396 2.25494 2.08445 2.08445C2.25494 1.91396 2.48617 1.81818 2.72727 1.81818H18.1818C18.4229 1.81818 18.6542 1.7224 18.8246 1.55192C18.9951 1.38143 19.0909 1.1502 19.0909 0.909091C19.0909 0.667985 18.9951 0.436754 18.8246 0.266267C18.6542 0.0957791 18.4229 0 18.1818 0H2.72727C2.00488 0.00299133 1.31292 0.291289 0.802105 0.802105C0.291289 1.31292 0.00299133 2.00488 0 2.72727V17.2727C0.00299133 17.9951 0.291289 18.6871 0.802105 19.1979C1.31292 19.7087 2.00488 19.997 2.72727 20H20.9091C21.3913 20 21.8538 19.8084 22.1947 19.4675C22.5357 19.1265 22.7273 18.664 22.7273 18.1818V5.45455C22.7273 4.97233 22.5357 4.50987 22.1947 4.1689C21.8538 3.82792 21.3913 3.63636 20.9091 3.63636ZM16.8182 13.1818C16.5485 13.1818 16.2848 13.1018 16.0606 12.952C15.8363 12.8022 15.6616 12.5892 15.5583 12.34C15.4551 12.0909 15.4281 11.8167 15.4807 11.5522C15.5334 11.2876 15.6632 11.0447 15.8539 10.8539C16.0447 10.6632 16.2876 10.5334 16.5521 10.4807C16.8167 10.4281 17.0908 10.4551 17.34 10.5583C17.5892 10.6616 17.8022 10.8363 17.952 11.0606C18.1018 11.2848 18.1818 11.5485 18.1818 11.8182C18.1818 12.1798 18.0381 12.5267 17.7824 12.7824C17.5267 13.0381 17.1798 13.1818 16.8182 13.1818Z" fill="#333333"/>
</svg>
