<svg width="22" height="21" viewBox="0 0 22 21" fill="none" xmlns="http://www.w3.org/2000/svg">
<path d="M11.0001 2.93329C12.5162 2.93329 13.7826 1.75172 13.9334 0.274996C13.9471 0.137498 13.7959 0 13.6584 0C13.584 7.38413e-05 13.5104 0.0140646 13.4412 0.0412495C13.432 0.0449161 12.4741 0.412494 11.0001 0.412494C9.52613 0.412494 8.56639 0.0458327 8.55906 0.0412495C8.48095 0.0140753 8.39885 0.000133788 8.31614 0H8.31339C8.27913 0.00181577 8.24556 0.0103753 8.21461 0.0251882C8.18366 0.040001 8.15594 0.060776 8.13303 0.0863225C8.11012 0.111869 8.09248 0.141685 8.08112 0.174061C8.06976 0.206437 8.0649 0.240737 8.06681 0.274996C8.22035 1.74897 9.48763 2.93329 11.0001 2.93329Z" fill="#777777"/>
<path d="M21.509 2.65374L15.5833 0.579358C15.5579 0.570506 15.5309 0.567338 15.5042 0.57008C15.4774 0.572821 15.4516 0.581405 15.4286 0.595223C15.4055 0.609041 15.3858 0.627755 15.3708 0.650042C15.3558 0.672328 15.3459 0.697641 15.3417 0.72419C15.1703 1.75133 14.6401 2.68437 13.8454 3.35738C13.0508 4.03039 12.0432 4.39973 11.0018 4.39973C9.96048 4.39973 8.95288 4.03039 8.15823 3.35738C7.36358 2.68437 6.83338 1.75133 6.66194 0.72419C6.65792 0.697199 6.64792 0.671447 6.63268 0.648811C6.61744 0.626176 6.59734 0.607228 6.57384 0.59335C6.55035 0.579472 6.52405 0.571014 6.49687 0.568594C6.46969 0.566173 6.44231 0.569851 6.41673 0.579358L0.491029 2.65374C0.325173 2.71181 0.18568 2.82749 0.0979438 2.97975C0.0102075 3.13201 -0.019938 3.3107 0.0129949 3.48332L0.775192 7.51659C0.804525 7.67032 0.882272 7.81064 0.997063 7.91702C1.11185 8.0234 1.25767 8.09026 1.41318 8.10783L3.65348 8.36083C3.74493 8.37114 3.82916 8.41547 3.88945 8.485C3.94973 8.55454 3.98166 8.64421 3.9789 8.7362L3.64294 19.7773C3.63849 19.9196 3.67555 20.0601 3.74962 20.1817C3.82368 20.3033 3.93153 20.4007 4.06002 20.462C4.16682 20.5103 4.28291 20.5345 4.4001 20.5331H17.5999C17.7171 20.5345 17.8332 20.5103 17.94 20.462C18.0685 20.4007 18.1763 20.3033 18.2504 20.1817C18.3244 20.0601 18.3615 19.9196 18.3571 19.7773L18.0211 8.7362C18.0183 8.64421 18.0503 8.55454 18.1106 8.485C18.1708 8.41547 18.2551 8.37114 18.3465 8.36083L20.5868 8.10783C20.7423 8.09026 20.8881 8.0234 21.0029 7.91702C21.1177 7.81064 21.1955 7.67032 21.2248 7.51659L21.987 3.48332C22.0199 3.3107 21.9898 3.13201 21.9021 2.97975C21.8143 2.82749 21.6748 2.71181 21.509 2.65374Z" fill="#777777"/>
</svg>
