<svg width="22" height="22" viewBox="0 0 22 22" fill="none" xmlns="http://www.w3.org/2000/svg">
<path d="M6.6 12.1H15.4C15.7117 12.1 15.9731 11.9944 16.1843 11.7832C16.3955 11.572 16.5007 11.3109 16.5 11C16.5 10.6883 16.3944 10.4269 16.1832 10.2157C15.972 10.0045 15.7109 9.89927 15.4 9.9H6.6C6.28833 9.9 6.0269 10.0056 5.8157 10.2168C5.6045 10.428 5.49927 10.6891 5.5 11C5.5 11.3117 5.6056 11.5731 5.8168 11.7843C6.028 11.9955 6.28907 12.1007 6.6 12.1ZM11 22C9.47833 22 8.04833 21.7111 6.71 21.1332C5.37167 20.5553 4.2075 19.7718 3.2175 18.7825C2.2275 17.7925 1.44393 16.6283 0.8668 15.29C0.289667 13.9517 0.000733333 12.5217 0 11C0 9.47833 0.288933 8.04833 0.8668 6.71C1.44467 5.37167 2.22823 4.2075 3.2175 3.2175C4.2075 2.2275 5.37167 1.44393 6.71 0.8668C8.04833 0.289667 9.47833 0.000733333 11 0C12.5217 0 13.9517 0.288933 15.29 0.8668C16.6283 1.44467 17.7925 2.22823 18.7825 3.2175C19.7725 4.2075 20.5564 5.37167 21.1343 6.71C21.7122 8.04833 22.0007 9.47833 22 11C22 12.5217 21.7111 13.9517 21.1332 15.29C20.5553 16.6283 19.7718 17.7925 18.7825 18.7825C17.7925 19.7725 16.6283 20.5564 15.29 21.1343C13.9517 21.7122 12.5217 22.0007 11 22Z" fill="#777777"/>
</svg>
