<svg width="16" height="18" viewBox="0 0 16 18" fill="none" xmlns="http://www.w3.org/2000/svg">
<path d="M14.2222 14.2222H5.33333C4.86184 14.2222 4.40965 14.0349 4.07625 13.7015C3.74286 13.3681 3.55556 12.9159 3.55556 12.4444V1.77778C3.55556 1.30628 3.74286 0.854097 4.07625 0.520699C4.40965 0.187301 4.86184 0 5.33333 0H6.22222V4.44444L8 3.11111L9.77778 4.44444V0H14.2222C14.6937 0 15.1459 0.187301 15.4793 0.520699C15.8127 0.854097 16 1.30628 16 1.77778V12.4444C16 12.9159 15.8127 13.3681 15.4793 13.7015C15.1459 14.0349 14.6937 14.2222 14.2222 14.2222ZM12.4444 16V17.7778H1.77778C1.30628 17.7778 0.854097 17.5905 0.520699 17.2571C0.187301 16.9237 0 16.4715 0 16V3.55556H1.77778V16H12.4444Z" fill="white"/>
</svg>
