<svg width="28" height="22" viewBox="0 0 28 22" fill="none" xmlns="http://www.w3.org/2000/svg">
<path d="M18.1429 1V3.85714M18.1429 9.57143V12.4286M18.1429 18.1429V21M3.85714 1H23.8571C24.6149 1 25.3416 1.30102 25.8774 1.83684C26.4133 2.37266 26.7143 3.09938 26.7143 3.85714V8.14286C25.9565 8.14286 25.2298 8.44388 24.694 8.9797C24.1582 9.51551 23.8571 10.2422 23.8571 11C23.8571 11.7578 24.1582 12.4845 24.694 13.0203C25.2298 13.5561 25.9565 13.8571 26.7143 13.8571V18.1429C26.7143 18.9006 26.4133 19.6273 25.8774 20.1632C25.3416 20.699 24.6149 21 23.8571 21H3.85714C3.09938 21 2.37266 20.699 1.83684 20.1632C1.30102 19.6273 1 18.9006 1 18.1429V13.8571C1.75776 13.8571 2.48449 13.5561 3.02031 13.0203C3.55612 12.4845 3.85714 11.7578 3.85714 11C3.85714 10.2422 3.55612 9.51551 3.02031 8.9797C2.48449 8.44388 1.75776 8.14286 1 8.14286V3.85714C1 3.09938 1.30102 2.37266 1.83684 1.83684C2.37266 1.30102 3.09938 1 3.85714 1" stroke="#333333" stroke-width="2" stroke-linecap="round" stroke-linejoin="round"/>
</svg>
