<svg width="12" height="12" viewBox="0 0 12 12" fill="none" xmlns="http://www.w3.org/2000/svg">
<path d="M7.10385 6.01018L11.7491 1.3649C11.8266 1.29274 11.8887 1.20572 11.9318 1.10903C11.9748 1.01234 11.998 0.907967 11.9999 0.802131C12.0017 0.696296 11.9823 0.591168 11.9426 0.49302C11.903 0.394872 11.844 0.305715 11.7691 0.230866C11.6943 0.156018 11.6051 0.0970115 11.507 0.0573679C11.4088 0.0177244 11.3037 -0.00174467 11.1979 0.000122669C11.092 0.00199001 10.9877 0.0251554 10.891 0.0682367C10.7943 0.111318 10.7073 0.173432 10.6351 0.250875L5.98982 4.89615L1.34454 0.250875C1.19512 0.111643 0.997493 0.0358432 0.793289 0.0394462C0.589085 0.0430491 0.394251 0.125773 0.249834 0.27019C0.105417 0.414606 0.0226934 0.60944 0.0190904 0.813644C0.0154875 1.01785 0.0912869 1.21548 0.230519 1.3649L4.8758 6.01018L0.230519 10.6555C0.0829102 10.8032 0 11.0036 0 11.2125C0 11.4213 0.0829102 11.6217 0.230519 11.7695C0.378312 11.9171 0.578652 12 0.787532 12C0.996413 12 1.19675 11.9171 1.34454 11.7695L5.98982 7.1242L10.6351 11.7695C10.7829 11.9171 10.9832 12 11.1921 12C11.401 12 11.6013 11.9171 11.7491 11.7695C11.8967 11.6217 11.9796 11.4213 11.9796 11.2125C11.9796 11.0036 11.8967 10.8032 11.7491 10.6555L7.10385 6.01018Z" fill="white"/>
</svg>
