<svg width="16" height="20" viewBox="0 0 16 20" fill="none" xmlns="http://www.w3.org/2000/svg">
<path d="M16 20H0V18.0952C0 16.8323 0.526784 15.6211 1.46447 14.7281C2.40215 13.835 3.67392 13.3333 5 13.3333H11C12.3261 13.3333 13.5979 13.835 14.5355 14.7281C15.4732 15.6211 16 16.8323 16 18.0952V20ZM8 11.4286C7.21207 11.4286 6.43185 11.2808 5.7039 10.9936C4.97595 10.7064 4.31451 10.2855 3.75736 9.7549C3.20021 9.22428 2.75825 8.59434 2.45672 7.90105C2.15519 7.20776 2 6.4647 2 5.71429C2 4.96388 2.15519 4.22081 2.45672 3.52752C2.75825 2.83423 3.20021 2.2043 3.75736 1.67368C4.31451 1.14306 4.97595 0.722144 5.7039 0.434974C6.43185 0.147804 7.21207 -1.1182e-08 8 0C9.5913 2.25831e-08 11.1174 0.602039 12.2426 1.67368C13.3679 2.74531 14 4.19876 14 5.71429C14 7.22981 13.3679 8.68326 12.2426 9.7549C11.1174 10.8265 9.5913 11.4286 8 11.4286V11.4286Z" fill="white"/>
</svg>
