<svg width="18" height="18" viewBox="0 0 18 18" fill="none" xmlns="http://www.w3.org/2000/svg">
<rect width="18" height="18" rx="9" fill="white"/>
<path d="M9 0C4.032 0 0 4.032 0 9C0 13.968 4.032 18 9 18C13.968 18 18 13.968 18 9C18 4.032 13.968 0 9 0ZM6.561 12.861L3.33 9.63C3.24668 9.54668 3.18058 9.44776 3.13549 9.33889C3.09039 9.23002 3.06718 9.11334 3.06718 8.9955C3.06718 8.87766 3.09039 8.76098 3.13549 8.65211C3.18058 8.54324 3.24668 8.44432 3.33 8.361C3.41332 8.27768 3.51224 8.21158 3.62111 8.16649C3.72998 8.12139 3.84666 8.09818 3.9645 8.09818C4.08234 8.09818 4.19902 8.12139 4.30789 8.16649C4.41676 8.21158 4.51568 8.27768 4.599 8.361L7.2 10.953L13.392 4.761C13.5603 4.59272 13.7885 4.49818 14.0265 4.49818C14.2645 4.49818 14.4927 4.59272 14.661 4.761C14.8293 4.92928 14.9238 5.15752 14.9238 5.3955C14.9238 5.63348 14.8293 5.86172 14.661 6.03L7.83 12.861C7.74674 12.9444 7.64784 13.0106 7.53896 13.0558C7.43009 13.101 7.31337 13.1242 7.1955 13.1242C7.07763 13.1242 6.96091 13.101 6.85204 13.0558C6.74316 13.0106 6.64426 12.9444 6.561 12.861Z" fill="#1DA1F2"/>
</svg>
