<svg width="28" height="28" viewBox="0 0 28 28" fill="none" xmlns="http://www.w3.org/2000/svg">
<path d="M24.5 22.1667V23.3334H3.5V22.1667L5.83333 19.8334V12.8334C5.83333 9.21671 8.20167 6.03171 11.6667 5.00504V4.66671C11.6667 4.04787 11.9125 3.45438 12.3501 3.01679C12.7877 2.57921 13.3812 2.33337 14 2.33337C14.6188 2.33337 15.2123 2.57921 15.6499 3.01679C16.0875 3.45438 16.3333 4.04787 16.3333 4.66671V5.00504C19.7983 6.03171 22.1667 9.21671 22.1667 12.8334V19.8334L24.5 22.1667ZM16.3333 24.5C16.3333 25.1189 16.0875 25.7124 15.6499 26.15C15.2123 26.5875 14.6188 26.8334 14 26.8334C13.3812 26.8334 12.7877 26.5875 12.3501 26.15C11.9125 25.7124 11.6667 25.1189 11.6667 24.5" fill="#333"/>
</svg>
