<svg width="30" height="30" viewBox="0 0 30 30" fill="none" xmlns="http://www.w3.org/2000/svg">
<rect width="30" height="30" rx="15" fill="white"/>
<path d="M20.3759 15.433L14.7549 21L9.13394 15.433C8.76318 15.0722 8.47114 14.6385 8.27621 14.1594C8.08128 13.6802 7.98768 13.1658 8.0013 12.6487C8.01492 12.1315 8.13547 11.6228 8.35536 11.1545C8.57525 10.6863 8.88971 10.2686 9.27895 9.92783C9.66819 9.58707 10.1238 9.33059 10.617 9.17454C11.1102 9.0185 11.6304 8.96627 12.1448 9.02114C12.6592 9.07602 13.1567 9.2368 13.6059 9.49338C14.0551 9.74996 14.4463 10.0968 14.7549 10.512C15.0649 10.0998 15.4565 9.75601 15.9054 9.50215C16.3543 9.24829 16.8508 9.08983 17.3638 9.03667C17.8767 8.98351 18.3951 9.0368 18.8866 9.19321C19.378 9.34962 19.8318 9.60578 20.2197 9.94565C20.6076 10.2855 20.9211 10.7018 21.1407 11.1684C21.3603 11.6351 21.4812 12.142 21.4959 12.6575C21.5105 13.173 21.4186 13.686 21.2259 14.1643C21.0332 14.6427 20.7438 15.0761 20.3759 15.4375" stroke="#333333" stroke-width="2" stroke-linecap="round" stroke-linejoin="round"/>
</svg>
