<svg width="30" height="30" viewBox="0 0 30 30" fill="none" xmlns="http://www.w3.org/2000/svg">
<rect width="30" height="30" rx="15" fill="white"/>
<path d="M11.3258 9.05679C11.9154 8.95632 12.5201 8.98946 13.0953 9.15378C13.6704 9.31809 14.2014 9.60938 14.649 10.0062L14.6736 10.0282L14.6963 10.0082C15.1235 9.63329 15.6257 9.3538 16.1694 9.18836C16.7132 9.02293 17.286 8.97535 17.8496 9.0488L18.0135 9.07278C18.7239 9.19544 19.3879 9.50794 19.9352 9.97718C20.4825 10.4464 20.8928 11.0549 21.1225 11.7383C21.3522 12.4217 21.3928 13.1544 21.24 13.859C21.0873 14.5635 20.7468 15.2137 20.2547 15.7405L20.1348 15.8638L20.1028 15.8911L15.1393 20.8073C15.0248 20.9207 14.873 20.9887 14.7122 20.9987C14.5513 21.0087 14.3923 20.9602 14.2645 20.8619L14.2019 20.8073L9.20978 15.8624C8.68093 15.3479 8.30482 14.697 8.12311 13.9818C7.9414 13.2667 7.96117 12.5152 8.18025 11.8106C8.39932 11.106 8.80914 10.4758 9.36432 9.98971C9.9195 9.50367 10.5984 9.18078 11.3258 9.05679Z" fill="#333333"/>
</svg>
