<svg width="36" height="36" viewBox="0 0 36 36" fill="none" xmlns="http://www.w3.org/2000/svg">
<path d="M23.5556 19.1111H19.1111V23.5556H16.8889V19.1111H12.4444V16.8889H16.8889V12.4444H19.1111V16.8889H23.5556M25.7778 8H10.2222C8.98889 8 8 8.98889 8 10.2222V25.7778C8 26.3671 8.23413 26.9324 8.65087 27.3491C9.06762 27.7659 9.63285 28 10.2222 28H25.7778C26.3671 28 26.9324 27.7659 27.3491 27.3491C27.7659 26.9324 28 26.3671 28 25.7778V10.2222C28 9.63285 27.7659 9.06762 27.3491 8.65087C26.9324 8.23413 26.3671 8 25.7778 8Z" fill="#333333"/>
</svg>
