<svg width="36" height="36" viewBox="0 0 36 36" fill="none" xmlns="http://www.w3.org/2000/svg">
<path d="M28 18C28 20.6522 26.9464 23.1957 25.0711 25.0711C23.1957 26.9464 20.6522 28 18 28C15.3478 28 12.8043 26.9464 10.9289 25.0711C9.05357 23.1957 8 20.6522 8 18C8 15.3478 9.05357 12.8043 10.9289 10.9289C12.8043 9.05357 15.3478 8 18 8C20.6522 8 23.1957 9.05357 25.0711 10.9289C26.9464 12.8043 28 15.3478 28 18ZM18.625 13.625C18.625 13.4592 18.5592 13.3003 18.4419 13.1831C18.3247 13.0658 18.1658 13 18 13C17.8342 13 17.6753 13.0658 17.5581 13.1831C17.4408 13.3003 17.375 13.4592 17.375 13.625V17.375H13.625C13.4592 17.375 13.3003 17.4408 13.1831 17.5581C13.0658 17.6753 13 17.8342 13 18C13 18.1658 13.0658 18.3247 13.1831 18.4419C13.3003 18.5592 13.4592 18.625 13.625 18.625H17.375V22.375C17.375 22.5408 17.4408 22.6997 17.5581 22.8169C17.6753 22.9342 17.8342 23 18 23C18.1658 23 18.3247 22.9342 18.4419 22.8169C18.5592 22.6997 18.625 22.5408 18.625 22.375V18.625H22.375C22.5408 18.625 22.6997 18.5592 22.8169 18.4419C22.9342 18.3247 23 18.1658 23 18C23 17.8342 22.9342 17.6753 22.8169 17.5581C22.6997 17.4408 22.5408 17.375 22.375 17.375H18.625V13.625Z" fill="#333333"/>
</svg>
