<svg width="36" height="36" viewBox="0 0 36 36" fill="none" xmlns="http://www.w3.org/2000/svg">
<rect width="36" height="36" rx="4" fill="#333333"/>
<path d="M21.1 15.9V14.5C21.1 12.54 19.56 11 17.6 11C15.64 11 14.1 12.54 14.1 14.5V15.9C12.91 15.9 12 16.81 12 18V22.9C12 24.09 12.91 25 14.1 25H21.1C22.29 25 23.2 24.09 23.2 22.9V18C23.2 16.81 22.29 15.9 21.1 15.9ZM15.5 14.5C15.5 13.31 16.41 12.4 17.6 12.4C18.79 12.4 19.7 13.31 19.7 14.5V15.9H15.5V14.5ZM18.37 20.45L18.3 20.52V21.5C18.3 21.92 18.02 22.2 17.6 22.2C17.18 22.2 16.9 21.92 16.9 21.5V20.52C16.48 20.1 16.41 19.47 16.83 19.05C17.25 18.63 17.88 18.56 18.3 18.98C18.72 19.33 18.79 20.03 18.37 20.45Z" fill="white"/>
</svg>
