<svg width="36" height="36" viewBox="0 0 36 36" fill="none" xmlns="http://www.w3.org/2000/svg">
<rect width="36" height="36" rx="4" fill="#333333"/>
<path fill-rule="evenodd" clip-rule="evenodd" d="M19.1795 11.1795C19.1795 11.1319 19.1606 11.0862 19.1269 11.0526C19.0933 11.0189 19.0476 11 19 11H13.9744C13.4507 11 12.9485 11.208 12.5783 11.5783C12.208 11.9485 12 12.4507 12 12.9744V23.0256C12 23.5493 12.208 24.0515 12.5783 24.4217C12.9485 24.792 13.4507 25 13.9744 25H21.1538C21.6775 25 22.1797 24.792 22.5499 24.4217C22.9202 24.0515 23.1282 23.5493 23.1282 23.0256V15.9517C23.1282 15.9041 23.1093 15.8584 23.0756 15.8248C23.042 15.7911 22.9963 15.7722 22.9487 15.7722H19.7179C19.5751 15.7722 19.4382 15.7155 19.3372 15.6145C19.2362 15.5135 19.1795 15.3766 19.1795 15.2337V11.1795ZM19.7179 18.1795C19.8608 18.1795 19.9977 18.2362 20.0987 18.3372C20.1997 18.4382 20.2564 18.5751 20.2564 18.7179C20.2564 18.8608 20.1997 18.9977 20.0987 19.0987C19.9977 19.1997 19.8608 19.2564 19.7179 19.2564H15.4103C15.2674 19.2564 15.1305 19.1997 15.0295 19.0987C14.9285 18.9977 14.8718 18.8608 14.8718 18.7179C14.8718 18.5751 14.9285 18.4382 15.0295 18.3372C15.1305 18.2362 15.2674 18.1795 15.4103 18.1795H19.7179ZM19.7179 21.0513C19.8608 21.0513 19.9977 21.108 20.0987 21.209C20.1997 21.31 20.2564 21.4469 20.2564 21.5897C20.2564 21.7326 20.1997 21.8695 20.0987 21.9705C19.9977 22.0715 19.8608 22.1282 19.7179 22.1282H15.4103C15.2674 22.1282 15.1305 22.0715 15.0295 21.9705C14.9285 21.8695 14.8718 21.7326 14.8718 21.5897C14.8718 21.4469 14.9285 21.31 15.0295 21.209C15.1305 21.108 15.2674 21.0513 15.4103 21.0513H19.7179Z" fill="white"/>
<path d="M20.2568 11.4121C20.2568 11.28 20.3954 11.196 20.4981 11.2785C20.5849 11.3489 20.6632 11.4307 20.73 11.5241L22.8931 14.5373C22.942 14.6062 22.8888 14.6952 22.8041 14.6952H20.4363C20.3887 14.6952 20.3431 14.6763 20.3094 14.6427C20.2757 14.609 20.2568 14.5634 20.2568 14.5157V11.4121Z" fill="white"/>
</svg>
