<svg width="36" height="36" viewBox="0 0 36 36" fill="none" xmlns="http://www.w3.org/2000/svg">
<rect width="36" height="36" rx="4" fill="#333333"/>
<path d="M20.02 11.0056L20.0939 11.0002L20.181 11.0033L20.2689 11.0165L20.3568 11.0399L25.0234 12.5954C25.1636 12.6422 25.2877 12.7279 25.3809 12.8427C25.4742 12.9574 25.5328 13.0964 25.5499 13.2433L25.5553 13.3335V17.2223C25.5553 17.4128 25.4854 17.5967 25.3588 17.7391C25.2322 17.8814 25.0578 17.9724 24.8686 17.9947L24.7776 18.0001H23.222V23.4445C23.2222 23.8369 23.074 24.2149 22.8071 24.5027C22.5403 24.7904 22.1745 24.9667 21.7832 24.9961L21.6665 25H13.8888C13.4964 25.0001 13.1184 24.8519 12.8306 24.5851C12.5429 24.3182 12.3666 23.9525 12.3372 23.5611L12.3333 23.4445V18.0001H10.7778C10.5873 18.0001 10.4034 17.9301 10.261 17.8035C10.1187 17.677 10.0277 17.5025 10.0054 17.3133L10 17.2223V13.3335C9.99995 13.1856 10.0421 13.0408 10.1214 12.9159C10.2008 12.7911 10.3141 12.6915 10.448 12.6288L10.532 12.5954L15.1986 11.0399C15.3155 11.0009 15.44 10.9903 15.5619 11.0089C15.6837 11.0275 15.7993 11.0748 15.8993 11.1469C15.9993 11.219 16.0807 11.3138 16.1368 11.4235C16.1929 11.5332 16.2222 11.6547 16.2221 11.778C16.2203 12.1816 16.3755 12.5701 16.6549 12.8615C16.9342 13.1529 17.3159 13.3242 17.7193 13.3394C18.1227 13.3545 18.5161 13.2123 18.8166 12.9427C19.117 12.6731 19.3009 12.2973 19.3293 11.8946L19.3363 11.708L19.3495 11.6201L19.3783 11.5158L19.4125 11.4357L19.4514 11.3642L19.5043 11.2919L19.558 11.2296C19.6015 11.1876 19.6459 11.1519 19.6941 11.1207L19.7688 11.0795L19.8489 11.0453L19.9329 11.0204L20.02 11.0056Z" fill="white"/>
</svg>
