<svg width="36" height="36" viewBox="0 0 36 36" fill="none" xmlns="http://www.w3.org/2000/svg">
<rect width="36" height="36" rx="4" fill="#333333"/>
<g clip-path="url(#clip0_1060_127)">
<path d="M19.582 19.2178L18 20.7998H16.6V22.1998H15.2V23.5998L13.8 24.9998H11V22.1998L16.782 16.4178C16.5102 15.5218 16.5456 14.5607 16.8826 13.6871C17.2196 12.8135 17.8388 12.0776 18.6419 11.5962C19.4451 11.1148 20.386 10.9156 21.3153 11.0303C22.2446 11.1449 23.1089 11.5667 23.771 12.2288C24.4331 12.8909 24.855 13.7552 24.9696 14.6845C25.0842 15.6138 24.885 16.5548 24.4036 17.3579C23.9223 18.161 23.1863 18.7802 22.3127 19.1172C21.4392 19.4542 20.478 19.4896 19.582 19.2178V19.2178ZM22.984 15.9838C23.2773 15.6901 23.477 15.3161 23.5579 14.909C23.6388 14.5019 23.5972 14.0799 23.4384 13.6964C23.2796 13.3129 23.0107 12.9851 22.6657 12.7543C22.3207 12.5235 21.9151 12.4002 21.5 12.3998C20.9432 12.4003 20.4094 12.6219 20.016 13.0158L22.984 15.9838V15.9838Z" fill="white"/>
</g>
<defs>
<clipPath id="clip0_1060_127">
<rect width="14" height="14" fill="white" transform="translate(11 11)"/>
</clipPath>
</defs>
</svg>
