<svg width="36" height="36" viewBox="0 0 36 36" fill="none" xmlns="http://www.w3.org/2000/svg">
<rect width="36" height="36" rx="4" fill="#333333"/>
<path d="M23.6667 25H13V23.6667C13 22.7826 13.3512 21.9348 13.9763 21.3096C14.6014 20.6845 15.4493 20.3333 16.3333 20.3333H20.3333C21.2174 20.3333 22.0652 20.6845 22.6904 21.3096C23.3155 21.9348 23.6667 22.7826 23.6667 23.6667V25ZM18.3333 19C17.808 19 17.2879 18.8965 16.8026 18.6955C16.3173 18.4945 15.8763 18.1999 15.5049 17.8284C15.1335 17.457 14.8388 17.016 14.6378 16.5307C14.4368 16.0454 14.3333 15.5253 14.3333 15C14.3333 14.4747 14.4368 13.9546 14.6378 13.4693C14.8388 12.984 15.1335 12.543 15.5049 12.1716C15.8763 11.8001 16.3173 11.5055 16.8026 11.3045C17.2879 11.1035 17.808 11 18.3333 11C19.3942 11 20.4116 11.4214 21.1618 12.1716C21.9119 12.9217 22.3333 13.9391 22.3333 15C22.3333 16.0609 21.9119 17.0783 21.1618 17.8284C20.4116 18.5786 19.3942 19 18.3333 19V19Z" fill="white"/>
</svg>
