<svg width="36" height="36" viewBox="0 0 36 36" fill="none" xmlns="http://www.w3.org/2000/svg">
<rect width="36" height="36" rx="4" fill="#333333"/>
<path d="M18.0002 20.7996C19.5466 20.7996 20.8002 19.546 20.8002 17.9996C20.8002 16.4532 19.5466 15.1996 18.0002 15.1996C16.4538 15.1996 15.2002 16.4532 15.2002 17.9996C15.2002 19.546 16.4538 20.7996 18.0002 20.7996Z" stroke="white" stroke-width="2" stroke-linecap="round" stroke-linejoin="round"/>
<path d="M20.8 15.1996V18.6996C20.8 19.2565 21.0213 19.7907 21.4151 20.1845C21.8089 20.5783 22.343 20.7996 22.9 20.7996C23.457 20.7996 23.9911 20.5783 24.3849 20.1845C24.7788 19.7907 25 19.2565 25 18.6996V17.9996C24.9999 16.4197 24.4654 14.8863 23.4833 13.6487C22.5012 12.4112 21.1294 11.5422 19.5909 11.1832C18.0523 10.8241 16.4376 10.9961 15.0091 11.6711C13.5807 12.3461 12.4227 13.4845 11.7233 14.9012C11.0239 16.3178 10.8243 17.9294 11.1569 19.4738C11.4896 21.0183 12.3349 22.4048 13.5554 23.4079C14.776 24.4111 16.3 24.9718 17.8797 24.999C19.4593 25.0261 21.0017 24.5181 22.256 23.5576" stroke="white" stroke-width="2" stroke-linecap="round" stroke-linejoin="round"/>
</svg>
